<svg width="20" height="20" viewBox="0 0 20 20" fill="none" xmlns="http://www.w3.org/2000/svg">
<g clip-path="url(#clip0_713_228)">
<path d="M10 1.66675C5.39752 1.66675 1.66669 5.39758 1.66669 10.0001C1.66669 14.6026 5.39752 18.3334 10 18.3334C14.6025 18.3334 18.3334 14.6026 18.3334 10.0001C18.3334 5.39758 14.6025 1.66675 10 1.66675Z" stroke="black" stroke-width="1.5" stroke-linecap="round" stroke-linejoin="round"/>
<path d="M3.5592 15.2883C3.5592 15.2883 5.4167 12.9167 10 12.9167C14.5834 12.9167 16.4417 15.2883 16.4417 15.2883M10 10C10.6631 10 11.299 9.73661 11.7678 9.26777C12.2366 8.79893 12.5 8.16304 12.5 7.5C12.5 6.83696 12.2366 6.20107 11.7678 5.73223C11.299 5.26339 10.6631 5 10 5C9.337 5 8.70111 5.26339 8.23227 5.73223C7.76343 6.20107 7.50004 6.83696 7.50004 7.5C7.50004 8.16304 7.76343 8.79893 8.23227 9.26777C8.70111 9.73661 9.337 10 10 10Z" fill="black"/>
<path d="M3.5592 15.2883C3.5592 15.2883 5.4167 12.9167 10 12.9167C14.5834 12.9167 16.4417 15.2883 16.4417 15.2883C15.8835 15.5767 11.9999 17.5 9.99988 18C8.39988 18.4 5.03943 16.3589 3.5592 15.2883ZM10 10C10.6631 10 11.299 9.73661 11.7678 9.26777C12.2366 8.79893 12.5 8.16304 12.5 7.5C12.5 6.83696 12.2366 6.20107 11.7678 5.73223C11.299 5.26339 10.6631 5 10 5C9.337 5 8.70111 5.26339 8.23227 5.73223C7.76343 6.20107 7.50004 6.83696 7.50004 7.5C7.50004 8.16304 7.76343 8.79893 8.23227 9.26777C8.70111 9.73661 9.337 10 10 10Z" stroke="black" stroke-width="1.5" stroke-linecap="round" stroke-linejoin="round"/>
<ellipse cx="9.5" cy="16" rx="5.5" ry="2" fill="black"/>
</g>
<defs>
<clipPath id="clip0_713_228">
<rect width="20" height="20" fill="white"/>
</clipPath>
</defs>
</svg>
