<svg width="17" height="24" viewBox="0 0 17 24" fill="none" xmlns="http://www.w3.org/2000/svg">
<path d="M14.4522 5.79322L14.4524 5.79355C15.7514 8.00204 16.4358 10.5179 16.4344 13.0802M14.4522 5.79322L16.1844 13.08M14.4522 5.79322C13.1904 3.65536 11.3991 1.87866 9.25091 0.634432L9.25078 0.634354M14.4522 5.79322L9.25078 0.634354M16.4344 13.0802L16.1844 13.08M16.4344 13.0802C16.4344 13.0801 16.4344 13.0801 16.4344 13.08H16.1844M16.4344 13.0802C16.4344 13.2445 16.4316 13.4113 16.426 13.576L16.426 13.576C16.3493 15.8344 15.4832 17.7512 13.9099 19.1018L13.909 19.1025C13.0818 19.8062 12.1129 20.3236 11.068 20.6198L10.7499 20.71V20.3793V18.7917V18.6178L10.9129 18.5574C12.7745 17.8668 14.3345 16.2363 14.4271 13.5081L14.4271 13.5081C14.4319 13.3658 14.4344 13.2218 14.4344 13.0801M16.1844 13.08C16.1844 13.2415 16.1816 13.4055 16.1761 13.5675C16.1015 15.7639 15.2615 17.612 13.7471 18.9121C13.0135 19.536 12.1648 20.0086 11.2499 20.3036V20.3793H10.9999L10.9317 20.1387C10.9545 20.1323 10.9772 20.1257 10.9999 20.119V18.7917C12.9469 18.0695 14.5806 16.356 14.6769 13.5166C14.6819 13.3715 14.6844 13.2246 14.6844 13.0801L14.4344 13.0806C14.4344 13.0804 14.4344 13.0803 14.4344 13.0801M14.4344 13.0801C14.43 10.9822 13.8942 8.91959 12.877 7.08474C11.8852 5.2957 10.4673 3.78005 8.75005 2.67162C7.03274 3.78003 5.6148 5.29567 4.62298 7.08471C3.60574 8.91962 3.06991 10.9823 3.06549 13.0803C3.06549 13.2219 3.06797 13.3658 3.07284 13.508L3.07284 13.5081C3.18391 16.779 5.41084 18.486 7.75005 18.8628M14.4344 13.0801L7.75005 18.8628M7.75005 18.8628V11.25V11H8.00005H9.50024H9.75024V11.25V23.25V23.5H9.50024H8.00024H7.75024V23.25V20.8846C6.18685 20.7005 4.73587 20.0854 3.5902 19.1019C2.01694 17.7513 1.15085 15.8345 1.07412 13.5761L1.07412 13.576C1.06854 13.4113 1.06568 13.2445 1.06567 13.0802L7.75005 18.8628ZM9.25078 0.634354L8.87522 0.417135L8.75005 0.344741M9.25078 0.634354L8.75005 0.344741M8.75005 0.344741L8.62488 0.417135M8.75005 0.344741L8.62488 0.417135M8.62488 0.417135L8.24953 0.634235L8.62488 0.417135ZM8.24938 0.634318C6.06452 1.89527 4.25028 3.70941 2.98921 5.8942C1.72812 8.07902 1.06469 10.5574 1.06567 13.0801L8.24938 0.634318Z" fill="#2EA504" stroke="#2EA504" stroke-width="0.5"/>
</svg>
