<svg width="20" height="20" viewBox="0 0 20 20" fill="none" xmlns="http://www.w3.org/2000/svg">
<g clip-path="url(#clip0_7_271)">
<path d="M19.2857 10.0001C19.2857 12.4628 18.3074 14.8247 16.566 16.5661C14.8246 18.3075 12.4627 19.2858 10 19.2858C7.53728 19.2858 5.17543 18.3075 3.43402 16.5661C1.69261 14.8247 0.714294 12.4628 0.714294 10.0001M19.2857 10.0001C19.2857 7.53735 18.3074 5.17549 16.566 3.43408C14.8246 1.69267 12.4627 0.714355 10 0.714355C7.53728 0.714355 5.17543 1.69267 3.43402 3.43408C1.69261 5.17549 0.714294 7.53735 0.714294 10.0001M19.2857 10.0001H0.714294" stroke="black" stroke-linecap="round" stroke-linejoin="round"/>
<path d="M13.5714 10.0001C13.396 13.3958 12.1453 16.6477 10 19.2858C7.85476 16.6477 6.60402 13.3958 6.42859 10.0001C6.60402 6.60437 7.85476 3.35243 10 0.714355C12.1453 3.35243 13.396 6.60437 13.5714 10.0001Z" stroke="black" stroke-linecap="round" stroke-linejoin="round"/>
</g>
<defs>
<clipPath id="clip0_7_271">
<rect width="20" height="20" fill="white"/>
</clipPath>
</defs>
</svg>
